<?xml version="1.0" encoding="UTF-8"?>
<!DOCTYPE svg PUBLIC "-//W3C//DTD SVG 1.1//EN" "http://www.w3.org/Graphics/SVG/1.1/DTD/svg11.dtd">
<svg xmlns="http://www.w3.org/2000/svg" version="1.1" width="190px" height="165px" style="shape-rendering:geometricPrecision; text-rendering:geometricPrecision; image-rendering:optimizeQuality; fill-rule:evenodd; clip-rule:evenodd" xmlns:xlink="http://www.w3.org/1999/xlink">
<g><path style="opacity:1" fill="#af6565" d="M 82.5,12.5 C 96.5,12.5 110.5,12.5 124.5,12.5C 124.586,13.4959 124.252,14.3292 123.5,15C 121.693,16.6023 119.693,17.9356 117.5,19C 113,24.1667 108.167,29 103,33.5C 102.014,32.8288 100.847,32.8288 99.5,33.5C 98.0452,29.2139 95.0452,27.0473 90.5,27C 94.0016,26.3439 94.0016,25.0105 90.5,23C 86.5039,21.1803 82.5039,19.6803 78.5,18.5C 80.2516,16.7541 81.5849,14.7541 82.5,12.5 Z"/></g>
<g><path style="opacity:1" fill="#b97777" d="M 124.5,12.5 C 137.833,12.5 151.167,12.5 164.5,12.5C 148.363,27.8005 132.03,42.9671 115.5,58C 114.552,58.4828 113.552,58.6495 112.5,58.5C 112.271,60.433 111.438,62.0997 110,63.5C 109.667,63.1667 109.333,62.8333 109,62.5C 103.798,67.5158 98.6311,72.5158 93.5,77.5C 88.8333,77.5 84.1667,77.5 79.5,77.5C 79.5,81.8333 79.5,86.1667 79.5,90.5C 56.1477,110.192 33.481,130.525 11.5,151.5C 11.5,143.5 11.5,135.5 11.5,127.5C 15.1504,124.003 18.8171,120.503 22.5,117C 23.5,116.667 24.5,116.333 25.5,116C 25.8333,115 26.1667,114 26.5,113C 29.0132,111.961 31.3466,110.628 33.5,109C 32.4019,108.23 32.4019,107.397 33.5,106.5C 41.7747,107.801 50.108,107.801 58.5,106.5C 57.5248,96.5527 57.1915,86.5527 57.5,76.5C 56.5,76.5 55.5,76.5 54.5,76.5C 54.5,75.1667 54.5,73.8333 54.5,72.5C 62.84,72.6664 71.1733,72.4997 79.5,72C 84.6145,70.6294 88.2812,67.6294 90.5,63C 94.749,61.8744 99.0823,61.2077 103.5,61C 100.774,60.8184 98.1071,60.3184 95.5,59.5C 97.7635,55.1118 98.7635,50.4452 98.5,45.5C 101.493,45.1192 104.159,43.9526 106.5,42C 105.062,41.7811 103.729,41.2811 102.5,40.5C 101.688,38.0554 100.688,35.7221 99.5,33.5C 100.847,32.8288 102.014,32.8288 103,33.5C 108.167,29 113,24.1667 117.5,19C 119.693,17.9356 121.693,16.6023 123.5,15C 124.252,14.3292 124.586,13.4959 124.5,12.5 Z"/></g>
<g><path style="opacity:1" fill="#be8282" d="M 164.5,12.5 C 167.5,12.5 170.5,12.5 173.5,12.5C 173.5,18.8333 173.5,25.1667 173.5,31.5C 167.376,35.3812 161.376,40.2145 155.5,46C 147.579,53.9215 139.745,61.7548 132,69.5C 126.504,72.9519 121.338,77.4519 116.5,83C 112.462,86.6742 108.129,89.8409 103.5,92.5C 102.233,87.6995 100.566,83.0328 98.5,78.5C 96.9291,77.6906 95.2624,77.3573 93.5,77.5C 98.6311,72.5158 103.798,67.5158 109,62.5C 109.333,62.8333 109.667,63.1667 110,63.5C 111.438,62.0997 112.271,60.433 112.5,58.5C 113.552,58.6495 114.552,58.4828 115.5,58C 132.03,42.9671 148.363,27.8005 164.5,12.5 Z"/></g>
<g><path style="opacity:1" fill="#fdfcfc" d="M 78.5,18.5 C 82.5039,19.6803 86.5039,21.1803 90.5,23C 94.0016,25.0105 94.0016,26.3439 90.5,27C 95.0452,27.0473 98.0452,29.2139 99.5,33.5C 100.688,35.7221 101.688,38.0554 102.5,40.5C 103.729,41.2811 105.062,41.7811 106.5,42C 104.159,43.9526 101.493,45.1192 98.5,45.5C 98.7635,50.4452 97.7635,55.1118 95.5,59.5C 98.1071,60.3184 100.774,60.8184 103.5,61C 99.0823,61.2077 94.749,61.8744 90.5,63C 88.2812,67.6294 84.6145,70.6294 79.5,72C 71.1733,72.4997 62.84,72.6664 54.5,72.5C 54.5,73.8333 54.5,75.1667 54.5,76.5C 55.5,76.5 56.5,76.5 57.5,76.5C 57.1915,86.5527 57.5248,96.5527 58.5,106.5C 50.108,107.801 41.7747,107.801 33.5,106.5C 32.536,99.2537 32.2027,91.9204 32.5,84.5C 32.5,81.8333 32.5,79.1667 32.5,76.5C 31.5,76.5 30.5,76.5 29.5,76.5C 29.9459,72.1226 29.2792,67.9559 27.5,64C 28.2718,62.779 29.2718,61.779 30.5,61C 29.5442,57.6064 29.2108,54.1064 29.5,50.5C 29.5,48.8333 29.5,47.1667 29.5,45.5C 30.5,45.5 31.5,45.5 32.5,45.5C 32.5,44.5 32.5,43.5 32.5,42.5C 37.8333,42.1667 37.8333,41.8333 32.5,41.5C 32.5,36.8333 32.5,32.1667 32.5,27.5C 27.1667,27.1667 27.1667,26.8333 32.5,26.5C 32.2317,23.8806 32.565,21.3806 33.5,19C 48.4963,18.5001 63.4963,18.3334 78.5,18.5 Z"/></g>
<g><path style="opacity:1" fill="#a14949" d="M 82.5,12.5 C 81.5849,14.7541 80.2516,16.7541 78.5,18.5C 63.4963,18.3334 48.4963,18.5001 33.5,19C 32.565,21.3806 32.2317,23.8806 32.5,26.5C 27.1667,26.8333 27.1667,27.1667 32.5,27.5C 32.5,32.1667 32.5,36.8333 32.5,41.5C 37.8333,41.8333 37.8333,42.1667 32.5,42.5C 32.5,43.5 32.5,44.5 32.5,45.5C 31.5,45.5 30.5,45.5 29.5,45.5C 29.5,47.1667 29.5,48.8333 29.5,50.5C 23.2079,55.1233 17.2079,60.1233 11.5,65.5C 11.5,47.8333 11.5,30.1667 11.5,12.5C 35.1667,12.5 58.8333,12.5 82.5,12.5 Z"/></g>
<g><path style="opacity:1" fill="#c58f8f" d="M 173.5,31.5 C 173.5,39.1667 173.5,46.8333 173.5,54.5C 165.5,62.1667 157.5,69.8333 149.5,77.5C 144.125,77.1718 138.792,77.5052 133.5,78.5C 131.538,82.8843 129.872,87.3843 128.5,92C 128.905,92.9454 129.572,93.6121 130.5,94C 129.234,94.3095 128.067,94.8095 127,95.5C 123.009,104.408 119.509,113.075 116.5,121.5C 112.21,112.798 108.21,103.965 104.5,95C 105.167,94.6667 105.833,94.3333 106.5,94C 105.263,93.7679 104.263,93.2679 103.5,92.5C 108.129,89.8409 112.462,86.6742 116.5,83C 121.338,77.4519 126.504,72.9519 132,69.5C 139.745,61.7548 147.579,53.9215 155.5,46C 161.376,40.2145 167.376,35.3812 173.5,31.5 Z"/></g>
<g><path style="opacity:1" fill="#ae6363" d="M 57.5,35.5 C 62.9127,35.2288 68.2461,35.7288 73.5,37C 75.3031,37.6368 76.6364,38.8035 77.5,40.5C 79.0777,41.2978 80.7444,41.7978 82.5,42C 81.2068,42.49 79.8734,42.6567 78.5,42.5C 78.5,43.5 78.5,44.5 78.5,45.5C 77.5,45.5 76.5,45.5 75.5,45.5C 75.655,50.0226 73.655,53.1893 69.5,55C 64.5111,55.4993 59.5111,55.6659 54.5,55.5C 54.5,52.1667 54.5,48.8333 54.5,45.5C 56.9084,44.799 59.2418,43.799 61.5,42.5C 60.3112,41.5713 58.9778,41.238 57.5,41.5C 57.5,39.5 57.5,37.5 57.5,35.5 Z"/></g>
<g><path style="opacity:1" fill="#cc9d9d" d="M 173.5,54.5 C 173.5,63.5 173.5,72.5 173.5,81.5C 166.18,87.654 159.18,93.3207 152.5,98.5C 152.227,96.549 152.893,95.049 154.5,94C 152.58,88.8027 151.913,83.3027 152.5,77.5C 151.5,77.5 150.5,77.5 149.5,77.5C 157.5,69.8333 165.5,62.1667 173.5,54.5 Z"/></g>
<g><path style="opacity:1" fill="#ab5d5d" d="M 29.5,50.5 C 29.2108,54.1064 29.5442,57.6064 30.5,61C 29.2718,61.779 28.2718,62.779 27.5,64C 29.2792,67.9559 29.9459,72.1226 29.5,76.5C 30.5,76.5 31.5,76.5 32.5,76.5C 32.5,79.1667 32.5,81.8333 32.5,84.5C 24.8803,89.7871 17.8803,95.7871 11.5,102.5C 11.5,90.1667 11.5,77.8333 11.5,65.5C 17.2079,60.1233 23.2079,55.1233 29.5,50.5 Z"/></g>
<g><path style="opacity:1" fill="#fefdfd" d="M 93.5,77.5 C 95.2624,77.3573 96.9291,77.6906 98.5,78.5C 100.566,83.0328 102.233,87.6995 103.5,92.5C 104.263,93.2679 105.263,93.7679 106.5,94C 105.833,94.3333 105.167,94.6667 104.5,95C 108.21,103.965 112.21,112.798 116.5,121.5C 119.509,113.075 123.009,104.408 127,95.5C 128.067,94.8095 129.234,94.3095 130.5,94C 129.572,93.6121 128.905,92.9454 128.5,92C 129.872,87.3843 131.538,82.8843 133.5,78.5C 138.792,77.5052 144.125,77.1718 149.5,77.5C 150.5,77.5 151.5,77.5 152.5,77.5C 151.913,83.3027 152.58,88.8027 154.5,94C 152.893,95.049 152.227,96.549 152.5,98.5C 151.919,103.975 152.586,109.142 154.5,114C 152.709,116.106 152.042,118.606 152.5,121.5C 153.5,121.5 154.5,121.5 155.5,121.5C 155.5,127.5 155.5,133.5 155.5,139.5C 154.5,139.5 153.5,139.5 152.5,139.5C 152.813,143.042 152.479,146.375 151.5,149.5C 146.167,149.5 140.833,149.5 135.5,149.5C 135.5,146.167 135.5,142.833 135.5,139.5C 136.5,139.5 137.5,139.5 138.5,139.5C 138.237,133.95 138.57,128.45 139.5,123C 136.718,119.592 137.052,116.592 140.5,114C 138.954,112.56 138.121,110.727 138,108.5C 136.495,110.298 136.328,112.132 137.5,114C 134.756,115.723 133.422,118.223 133.5,121.5C 134.675,121.281 135.675,121.614 136.5,122.5C 134.057,127.72 131.89,133.053 130,138.5C 128.667,139.167 127.333,139.833 126,140.5C 124.729,143.484 123.562,146.484 122.5,149.5C 117.901,149.8 113.401,149.467 109,148.5C 108.167,146 107.333,143.5 106.5,141C 107.167,140 107.833,139 108.5,138C 106.113,132.677 104.447,127.177 103.5,121.5C 102.5,121.5 101.5,121.5 100.5,121.5C 100.5,127.5 100.5,133.5 100.5,139.5C 99.448,139.351 98.448,139.517 97.5,140C 97.8333,140.333 98.1667,140.667 98.5,141C 96.6787,143.456 96.012,146.289 96.5,149.5C 90.8333,149.5 85.1667,149.5 79.5,149.5C 79.6782,146.121 79.6782,142.955 79.5,140C 80.7932,139.51 82.1266,139.343 83.5,139.5C 83.8235,132.978 83.4902,126.645 82.5,120.5C 81.5,120.5 80.5,120.5 79.5,120.5C 79.5,119.167 79.5,117.833 79.5,116.5C 78.9267,109.617 79.5933,102.951 81.5,96.5C 79.0087,95.4593 79.0087,94.6259 81.5,94C 80.0267,93.2904 79.3601,92.1238 79.5,90.5C 79.5,86.1667 79.5,81.8333 79.5,77.5C 84.1667,77.5 88.8333,77.5 93.5,77.5 Z"/></g>
<g><path style="opacity:1" fill="#d4acac" d="M 173.5,81.5 C 173.5,95.8333 173.5,110.167 173.5,124.5C 170.182,125.959 167.349,128.626 165,132.5C 164.667,132.167 164.333,131.833 164,131.5C 163.641,134.544 162.974,134.878 162,132.5C 160.71,134.792 159.043,136.792 157,138.5C 156.827,132.652 156.327,126.985 155.5,121.5C 154.5,121.5 153.5,121.5 152.5,121.5C 152.042,118.606 152.709,116.106 154.5,114C 152.586,109.142 151.919,103.975 152.5,98.5C 159.18,93.3207 166.18,87.654 173.5,81.5 Z"/></g>
<g><path style="opacity:1" fill="#b26b6b" d="M 32.5,84.5 C 32.2027,91.9204 32.536,99.2537 33.5,106.5C 32.4019,107.397 32.4019,108.23 33.5,109C 31.3466,110.628 29.0132,111.961 26.5,113C 26.1667,114 25.8333,115 25.5,116C 24.5,116.333 23.5,116.667 22.5,117C 18.8171,120.503 15.1504,124.003 11.5,127.5C 11.5,119.167 11.5,110.833 11.5,102.5C 17.8803,95.7871 24.8803,89.7871 32.5,84.5 Z"/></g>
<g><path style="opacity:1" fill="#bf8383" d="M 79.5,90.5 C 79.3601,92.1238 80.0267,93.2904 81.5,94C 79.0087,94.6259 79.0087,95.4593 81.5,96.5C 79.5933,102.951 78.9267,109.617 79.5,116.5C 68.9401,125.197 58.2734,134.53 47.5,144.5C 43.9022,148.086 40.5689,151.753 37.5,155.5C 28.8333,155.5 20.1667,155.5 11.5,155.5C 11.5,154.167 11.5,152.833 11.5,151.5C 33.481,130.525 56.1477,110.192 79.5,90.5 Z"/></g>
<g><path style="opacity:1" fill="#d0a6a5" d="M 100.5,121.5 C 99.1667,121.5 97.8333,121.5 96.5,121.5C 96.3342,116.821 96.5008,112.155 97,107.5C 99.7064,111.785 100.873,116.452 100.5,121.5 Z"/></g>
<g><path style="opacity:1" fill="#c48d8d" d="M 79.5,116.5 C 79.5,117.833 79.5,119.167 79.5,120.5C 80.5,120.5 81.5,120.5 82.5,120.5C 82.8256,124.884 82.4922,129.217 81.5,133.5C 73.4213,140.919 65.4213,148.252 57.5,155.5C 50.8333,155.5 44.1667,155.5 37.5,155.5C 40.5689,151.753 43.9022,148.086 47.5,144.5C 58.2734,134.53 68.9401,125.197 79.5,116.5 Z"/></g>
<g><path style="opacity:1" fill="#d1a8a8" d="M 119.5,121.5 C 120.5,121.5 121.5,121.5 122.5,121.5C 121.5,128.167 120.5,128.167 119.5,121.5 Z"/></g>
<g><path style="opacity:1" fill="#ddbebe" d="M 155.5,121.5 C 156.327,126.985 156.827,132.652 157,138.5C 159.043,136.792 160.71,134.792 162,132.5C 162.974,134.878 163.641,134.544 164,131.5C 164.333,131.833 164.667,132.167 165,132.5C 167.349,128.626 170.182,125.959 173.5,124.5C 173.5,134.833 173.5,145.167 173.5,155.5C 164.5,155.5 155.5,155.5 146.5,155.5C 148.292,153.502 149.959,151.502 151.5,149.5C 152.479,146.375 152.813,143.042 152.5,139.5C 153.5,139.5 154.5,139.5 155.5,139.5C 155.5,133.5 155.5,127.5 155.5,121.5 Z"/></g>
<g><path style="opacity:1" fill="#ca9999" d="M 82.5,120.5 C 83.4902,126.645 83.8235,132.978 83.5,139.5C 82.1266,139.343 80.7932,139.51 79.5,140C 79.6782,142.955 79.6782,146.121 79.5,149.5C 85.1667,149.5 90.8333,149.5 96.5,149.5C 96.2435,151.776 94.9102,152.943 92.5,153C 93.5981,153.77 93.5981,154.603 92.5,155.5C 80.8333,155.5 69.1667,155.5 57.5,155.5C 65.4213,148.252 73.4213,140.919 81.5,133.5C 82.4922,129.217 82.8256,124.884 82.5,120.5 Z"/></g>
<g><path style="opacity:1" fill="#d7b2b2" d="M 151.5,149.5 C 149.959,151.502 148.292,153.502 146.5,155.5C 137.167,155.5 127.833,155.5 118.5,155.5C 119.626,153.547 121.292,152.047 123.5,151C 122.944,150.617 122.611,150.117 122.5,149.5C 123.562,146.484 124.729,143.484 126,140.5C 127.333,139.833 128.667,139.167 130,138.5C 131.89,133.053 134.057,127.72 136.5,122.5C 135.675,121.614 134.675,121.281 133.5,121.5C 133.422,118.223 134.756,115.723 137.5,114C 136.328,112.132 136.495,110.298 138,108.5C 138.121,110.727 138.954,112.56 140.5,114C 137.052,116.592 136.718,119.592 139.5,123C 138.57,128.45 138.237,133.95 138.5,139.5C 137.5,139.5 136.5,139.5 135.5,139.5C 135.5,142.833 135.5,146.167 135.5,149.5C 140.833,149.5 146.167,149.5 151.5,149.5 Z"/></g>
<g><path style="opacity:1" fill="#d1a6a6" d="M 100.5,121.5 C 101.5,121.5 102.5,121.5 103.5,121.5C 104.447,127.177 106.113,132.677 108.5,138C 107.833,139 107.167,140 106.5,141C 107.333,143.5 108.167,146 109,148.5C 113.401,149.467 117.901,149.8 122.5,149.5C 122.611,150.117 122.944,150.617 123.5,151C 121.292,152.047 119.626,153.547 118.5,155.5C 109.833,155.5 101.167,155.5 92.5,155.5C 93.5981,154.603 93.5981,153.77 92.5,153C 94.9102,152.943 96.2435,151.776 96.5,149.5C 96.012,146.289 96.6787,143.456 98.5,141C 98.1667,140.667 97.8333,140.333 97.5,140C 98.448,139.517 99.448,139.351 100.5,139.5C 100.5,133.5 100.5,127.5 100.5,121.5 Z"/></g>
</svg>
